<svg width="551" height="104" viewBox="0 0 551 104" fill="none" xmlns="http://www.w3.org/2000/svg">
<path d="M101.827 102V1.86136H141.532V102H126.323V16.3976H117.036V102H101.827Z" fill="black"/>
<path d="M171.535 60.4102H162.652V102H147.443V1.86136H171.535C177.009 1.86136 180.957 3.16244 183.38 5.76461C185.892 8.27705 187.148 12.4944 187.148 18.4165V42.1053C187.148 54.3085 181.944 60.4102 171.535 60.4102ZM162.652 15.4555V46.0085H166.555C168.709 46.0085 170.1 45.4253 170.728 44.2588C171.446 43.0026 171.804 41.1631 171.804 38.7404V22.3198C171.804 20.0765 171.446 18.3717 170.728 17.2052C170.01 16.0387 168.619 15.4555 166.555 15.4555H162.652Z" fill="black"/>
<path d="M232.924 23.8003V79.6572C232.924 95.36 226.464 103.211 213.543 103.211H210.985C197.885 103.211 191.334 95.36 191.334 79.6572V23.9349C191.334 8.5911 197.84 0.919191 210.851 0.919191H213.408C220.407 0.919191 225.387 2.89325 228.348 6.84137C231.399 10.7895 232.924 16.4425 232.924 23.8003ZM217.446 80.734V23.1274C217.446 18.0128 215.696 15.4555 212.197 15.4555C208.607 15.4555 206.813 18.0128 206.813 23.1274V80.734C206.813 85.8486 208.652 88.4059 212.331 88.4059C215.741 88.4059 217.446 85.8486 217.446 80.734Z" fill="black"/>
<path d="M261.018 0.515411H276.227V9.53327H276.631C284.976 9.53327 290.988 11.4176 294.667 15.1863C298.345 18.8652 300.185 24.8322 300.185 33.0874V67.0053C300.185 75.1707 298.301 81.1378 294.532 84.9064C290.853 88.5854 284.841 90.4248 276.496 90.4248H276.227V103.346H261.018V90.4248H260.749C252.404 90.4248 246.347 88.5405 242.578 84.7719C238.899 81.0032 237.06 75.0362 237.06 66.8707V33.0874C237.06 24.7425 238.899 18.7306 242.578 15.0517C246.257 11.3727 252.269 9.53327 260.614 9.53327H261.018V0.515411ZM261.018 22.8582H260.614C257.473 22.8582 255.32 23.7555 254.153 25.5501C253.077 27.2549 252.538 29.8122 252.538 33.222V64.0442C252.538 68.7102 253.077 72.0751 254.153 74.1388C255.23 76.1129 257.384 77.0999 260.614 77.0999H261.018V22.8582ZM276.227 22.8582V77.0999H276.765C279.996 77.0999 282.104 76.1129 283.091 74.1388C284.168 72.0751 284.707 68.7102 284.707 64.0442V33.222C284.707 29.8122 284.123 27.2549 282.957 25.5501C281.88 23.7555 279.816 22.8582 276.765 22.8582H276.227Z" fill="black"/>
<path d="M330.203 81.6762V58.3912H345.143V81.5416C345.143 95.9881 339.086 103.211 326.972 103.211H323.608C311.135 103.211 304.899 96.1676 304.899 82.08V20.9738C304.899 15.2311 306.335 10.4754 309.206 6.70678C312.077 2.84839 316.698 0.919191 323.069 0.919191H326.569C330.517 0.919191 333.792 1.50244 336.394 2.66893C339.086 3.83542 341.015 5.54029 342.182 7.78353C343.348 10.0268 344.111 12.2252 344.47 14.3787C344.918 16.4425 345.143 18.9101 345.143 21.7814V39.6825H330.203V22.0506C330.203 17.6538 328.498 15.4555 325.088 15.4555C323.294 15.4555 322.037 15.9938 321.319 17.0706C320.691 18.0576 320.377 19.7176 320.377 22.0506V81.5416C320.377 86.1178 321.992 88.4059 325.223 88.4059C328.543 88.4059 330.203 86.1627 330.203 81.6762Z" fill="black"/>
<path d="M349.723 102V1.86136H389.429V102H374.22V16.3976H364.932V102H349.723Z" fill="black"/>
<path d="M410.549 1.86136V102H395.339V1.86136H410.549Z" fill="black"/>
<path d="M443.696 102V16.3976H434.812C434.812 52.1999 434.364 75.4848 433.467 86.2524C433.108 91.6362 431.717 95.6292 429.294 98.2314C426.961 100.744 423.058 102 417.584 102H413.816V86.5216H414.892C416.597 86.5216 417.764 86.0281 418.392 85.041C419.02 84.054 419.424 82.3043 419.603 79.7918C420.231 73.7799 420.545 47.8031 420.545 1.86136H458.905V102H443.696Z" fill="black"/>
<path d="M492.463 102L479.811 58.5258V102H464.602V1.86136H479.811V41.9707L491.79 1.86136H506.596L492.463 48.4312L508.076 102H492.463Z" fill="black"/>
<path d="M535.788 102L533.769 83.1567H522.598L520.714 102H507.119L519.368 1.86136H537.403L550.459 102H535.788ZM528.116 31.2031L524.213 68.2167H532.154L528.116 31.2031Z" fill="black"/>
<path d="M0 6C0 3.23858 2.23858 1 5 1H85C87.7614 1 90 3.23858 90 6V98C90 100.761 87.7614 103 85 103H5C2.23858 103 0 100.761 0 98V6Z" fill="#0026F3"/>
<path d="M60.6691 60.9379V74.3353C60.6691 85.3968 56.0315 90.9275 46.7564 90.9275H44.1799C34.63 90.9275 29.855 85.5342 29.855 74.7475V27.9596C29.855 23.5625 30.9543 19.9211 33.1528 17.0355C35.3514 14.0812 38.8897 12.6041 43.7677 12.6041H46.4472C49.4702 12.6041 51.9779 13.0507 53.9704 13.9438C56.0315 14.837 57.5086 16.1424 58.4018 17.86C59.295 19.5776 59.879 21.2609 60.1538 22.9098C60.4973 24.49 60.6691 26.3794 60.6691 28.5779V40.5326H49.2297V28.784C49.2297 25.4175 47.9243 23.7342 45.3136 23.7342C43.9395 23.7342 42.9776 24.1465 42.428 24.9709C41.947 25.7267 41.7066 26.9977 41.7066 28.784V44.5518H53.4551V56.1972H41.7066V74.3353C41.7066 77.8392 42.9432 79.5912 45.4166 79.5912C47.9587 79.5912 49.2297 77.8736 49.2297 74.4384V60.9379H60.6691Z" fill="white"/>
</svg>
